# xmcd
#
# Track frame offsets:
#	150
#	3915
#	14070
#	27435
#	38268
#	63225
#	74501
#	90000
#	120487
#	129000
#	150800
#	171592
#	190248
#	199050
#	219847
#	224137
#
# Disc length: 3144 seconds
# Revision: 0
# Processed by: cddbd v1.5.2PL0 Copyright (c) Steve Scherf et al.
# Submitted via: dBpowerAMP V12.0
#
DISCID=cc0c4610
DTITLE=Doc Watson and David Holt - Legacy [CD2]
DYEAR=2002
DGENRE=Folk
TTITLE0=Sitting on Top of the World
TTITLE1=Interview: Playin' on the Street
TTITLE2=Down the Road
TTITLE3=Bury Me Beneath the Willow
TTITLE4=Interview: The Woman From Wildcat
TTITLE5=Interview: The Legend of Tom Dooley
TTITLE6=Tom Dooley
TTITLE7=Interview: Hitting the Road
TTITLE8=Interview: Going Solo
TTITLE9=Interview: Top of the Heap
TTITLE10=Tennessee Stud
TTITLE11=Interview: Bulding Bridges
TTITLE12=Ready for the Times to Get Better
TTITLE13=Interview: Living the Blues
TTITLE14=Interview: Blessed
TTITLE15=Rolling in My Sweet Baby's Arms
EXTD=
EXTT0=
EXTT1=
EXTT2=
EXTT3=
EXTT4=
EXTT5=
EXTT6=
EXTT7=
EXTT8=
EXTT9=
EXTT10=
EXTT11=
EXTT12=
EXTT13=
EXTT14=
EXTT15=
PLAYORDER=
